<?xml version="1.0" encoding="utf-8"?>
<!-- Svg Vector Icons : http://www.sfont.cn -->
<!DOCTYPE svg PUBLIC "-//W3C//DTD SVG 1.1//EN" "http://www.w3.org/Graphics/SVG/1.1/DTD/svg11.dtd">
<svg height="20pt" width="20pt" version="1.1" xmlns="http://www.w3.org/2000/svg" xmlns:xlink="http://www.w3.org/1999/xlink" x="0px" y="0px" viewBox="0 0 1000 1000" enable-background="new 0 0 1000 1000" xml:space="preserve">
<metadata> Svg Vector Icons : http://www.sfont.cn </metadata>
<g><g transform="translate(0.000000,512.000000) scale(0.100000,-0.100000)"><path d="M4871.6,4951.4c-32.6-40.2-852.8-1144.1-1822.5-2453L1282.2,116.4l1816.7-2447.2L4915.7-4780h84.3h84.3L6901-2330.9L8717.8,116.4L6901,2565.5L5084.3,5012.7l-78.6,5.7C4934.8,5024.2,4923.3,5016.5,4871.6,4951.4z M6674.9,2354.7L8334.5,116.4L6674.9-2120.1C5760.8-3352.3,5007.7-4358.4,5000-4358.4s-762.7,1006.1-1674.9,2238.3L1665.5,116.4L3327,2358.5c916,1232.2,1669.2,2240.2,1676.8,2236.4C5009.6,4593,5762.7,3585,6674.9,2354.7z"/></g></g>
</svg>